<svg xmlns="http://www.w3.org/2000/svg" version="1.1" xmlns:xlink="http://www.w3.org/1999/xlink" xmlns:svgjs="http://svgjs.com/svgjs" width="1440" height="800" preserveAspectRatio="none" viewBox="0 0 1440 800">
    <g mask="url(&quot;#SvgjsMask2949&quot;)" fill="none">
        <rect width="1440" height="800" x="0" y="0" fill="url(#SvgjsLinearGradient2950)"></rect>
        <path d="M47.7 -47.84L112.65 -10.34L112.65 64.66L47.7 102.16L-17.25 64.66L-17.25 -10.34zM112.65 64.66L177.61 102.16L177.61 177.16L112.65 214.66L47.7 177.16L47.7 102.16zM47.7 177.16L112.65 214.66L112.65 289.66L47.7 327.16L-17.25 289.66L-17.25 214.66zM47.7 402.16L112.65 439.66L112.65 514.66L47.7 552.16L-17.25 514.66L-17.25 439.66zM112.65 514.66L177.61 552.16L177.61 627.16L112.65 664.66L47.7 627.16L47.7 552.16zM242.56 514.66L307.51 552.16L307.51 627.16L242.56 664.66L177.61 627.16L177.61 552.16zM307.51 177.16L372.47 214.66L372.47 289.66L307.51 327.16L242.56 289.66L242.56 214.66zM372.47 289.66L437.42 327.16L437.42 402.16L372.47 439.66L307.51 402.16L307.51 327.16zM372.47 739.66L437.42 777.16L437.42 852.16L372.47 889.66L307.51 852.16L307.51 777.16zM437.42 -47.84L502.38 -10.34L502.38 64.66L437.42 102.16L372.47 64.66L372.47 -10.34zM437.42 402.16L502.38 439.66L502.38 514.66L437.42 552.16L372.47 514.66L372.47 439.66zM502.38 514.66L567.33 552.16L567.33 627.16L502.38 664.66L437.42 627.16L437.42 552.16zM502.38 739.66L567.33 777.16L567.33 852.16L502.38 889.66L437.42 852.16L437.42 777.16zM567.33 177.16L632.28 214.66L632.28 289.66L567.33 327.16L502.38 289.66L502.38 214.66zM632.28 739.66L697.24 777.16L697.24 852.16L632.28 889.66L567.33 852.16L567.33 777.16zM892.1 64.66L957.05 102.16L957.05 177.16L892.1 214.66L827.14 177.16L827.14 102.16zM827.14 177.16L892.1 214.66L892.1 289.66L827.14 327.16L762.19 289.66L762.19 214.66zM827.14 402.16L892.1 439.66L892.1 514.66L827.14 552.16L762.19 514.66L762.19 439.66zM827.14 627.16L892.1 664.66L892.1 739.66L827.14 777.16L762.19 739.66L762.19 664.66zM892.1 739.66L957.05 777.16L957.05 852.16L892.1 889.66L827.14 852.16L827.14 777.16zM957.05 177.16L1022.01 214.66L1022.01 289.66L957.05 327.16L892.1 289.66L892.1 214.66zM1022.01 514.66L1086.96 552.16L1086.96 627.16L1022.01 664.66L957.05 627.16L957.05 552.16zM1086.96 -47.84L1151.91 -10.34L1151.91 64.66L1086.96 102.16L1022.01 64.66L1022.01 -10.34zM1151.91 289.66L1216.87 327.16L1216.87 402.16L1151.91 439.66L1086.96 402.16L1086.96 327.16zM1086.96 402.16L1151.91 439.66L1151.91 514.66L1086.96 552.16L1022.01 514.66L1022.01 439.66zM1216.87 -47.84L1281.82 -10.34L1281.82 64.66L1216.87 102.16L1151.91 64.66L1151.91 -10.34zM1281.82 514.66L1346.77 552.16L1346.77 627.16L1281.82 664.66L1216.87 627.16L1216.87 552.16zM1216.87 627.16L1281.82 664.66L1281.82 739.66L1216.87 777.16L1151.91 739.66L1151.91 664.66zM1411.73 289.66L1476.68 327.16L1476.68 402.16L1411.73 439.66L1346.78 402.16L1346.78 327.16zM1346.78 627.16L1411.73 664.66L1411.73 739.66L1346.78 777.16L1281.82 739.66L1281.82 664.66zM1476.68 -47.84L1541.64 -10.34L1541.64 64.66L1476.68 102.16L1411.73 64.66L1411.73 -10.34zM1541.64 64.66L1606.59 102.16L1606.59 177.16L1541.64 214.66L1476.68 177.16L1476.68 102.16zM1476.68 177.16L1541.64 214.66L1541.64 289.66L1476.68 327.16L1411.73 289.66L1411.73 214.66z" stroke="url(#SvgjsLinearGradient2951)" stroke-width="2"></path>
        <path d="M40.2 -47.84 a7.5 7.5 0 1 0 15 0 a7.5 7.5 0 1 0 -15 0zM105.15 -10.34 a7.5 7.5 0 1 0 15 0 a7.5 7.5 0 1 0 -15 0zM105.15 64.66 a7.5 7.5 0 1 0 15 0 a7.5 7.5 0 1 0 -15 0zM40.2 102.16 a7.5 7.5 0 1 0 15 0 a7.5 7.5 0 1 0 -15 0zM-24.75 64.66 a7.5 7.5 0 1 0 15 0 a7.5 7.5 0 1 0 -15 0zM-24.75 -10.34 a7.5 7.5 0 1 0 15 0 a7.5 7.5 0 1 0 -15 0zM170.11 102.16 a7.5 7.5 0 1 0 15 0 a7.5 7.5 0 1 0 -15 0zM170.11 177.16 a7.5 7.5 0 1 0 15 0 a7.5 7.5 0 1 0 -15 0zM105.15 214.66 a7.5 7.5 0 1 0 15 0 a7.5 7.5 0 1 0 -15 0zM40.2 177.16 a7.5 7.5 0 1 0 15 0 a7.5 7.5 0 1 0 -15 0zM105.15 289.66 a7.5 7.5 0 1 0 15 0 a7.5 7.5 0 1 0 -15 0zM40.2 327.16 a7.5 7.5 0 1 0 15 0 a7.5 7.5 0 1 0 -15 0zM-24.75 289.66 a7.5 7.5 0 1 0 15 0 a7.5 7.5 0 1 0 -15 0zM-24.75 214.66 a7.5 7.5 0 1 0 15 0 a7.5 7.5 0 1 0 -15 0zM40.2 402.16 a7.5 7.5 0 1 0 15 0 a7.5 7.5 0 1 0 -15 0zM105.15 439.66 a7.5 7.5 0 1 0 15 0 a7.5 7.5 0 1 0 -15 0zM105.15 514.66 a7.5 7.5 0 1 0 15 0 a7.5 7.5 0 1 0 -15 0zM40.2 552.16 a7.5 7.5 0 1 0 15 0 a7.5 7.5 0 1 0 -15 0zM-24.75 514.66 a7.5 7.5 0 1 0 15 0 a7.5 7.5 0 1 0 -15 0zM-24.75 439.66 a7.5 7.5 0 1 0 15 0 a7.5 7.5 0 1 0 -15 0zM170.11 552.16 a7.5 7.5 0 1 0 15 0 a7.5 7.5 0 1 0 -15 0zM170.11 627.16 a7.5 7.5 0 1 0 15 0 a7.5 7.5 0 1 0 -15 0zM105.15 664.66 a7.5 7.5 0 1 0 15 0 a7.5 7.5 0 1 0 -15 0zM40.2 627.16 a7.5 7.5 0 1 0 15 0 a7.5 7.5 0 1 0 -15 0zM235.06 514.66 a7.5 7.5 0 1 0 15 0 a7.5 7.5 0 1 0 -15 0zM300.01 552.16 a7.5 7.5 0 1 0 15 0 a7.5 7.5 0 1 0 -15 0zM300.01 627.16 a7.5 7.5 0 1 0 15 0 a7.5 7.5 0 1 0 -15 0zM235.06 664.66 a7.5 7.5 0 1 0 15 0 a7.5 7.5 0 1 0 -15 0zM300.01 177.16 a7.5 7.5 0 1 0 15 0 a7.5 7.5 0 1 0 -15 0zM364.97 214.66 a7.5 7.5 0 1 0 15 0 a7.5 7.5 0 1 0 -15 0zM364.97 289.66 a7.5 7.5 0 1 0 15 0 a7.5 7.5 0 1 0 -15 0zM300.01 327.16 a7.5 7.5 0 1 0 15 0 a7.5 7.5 0 1 0 -15 0zM235.06 289.66 a7.5 7.5 0 1 0 15 0 a7.5 7.5 0 1 0 -15 0zM235.06 214.66 a7.5 7.5 0 1 0 15 0 a7.5 7.5 0 1 0 -15 0zM429.92 327.16 a7.5 7.5 0 1 0 15 0 a7.5 7.5 0 1 0 -15 0zM429.92 402.16 a7.5 7.5 0 1 0 15 0 a7.5 7.5 0 1 0 -15 0zM364.97 439.66 a7.5 7.5 0 1 0 15 0 a7.5 7.5 0 1 0 -15 0zM300.01 402.16 a7.5 7.5 0 1 0 15 0 a7.5 7.5 0 1 0 -15 0zM364.97 739.66 a7.5 7.5 0 1 0 15 0 a7.5 7.5 0 1 0 -15 0zM429.92 777.16 a7.5 7.5 0 1 0 15 0 a7.5 7.5 0 1 0 -15 0zM429.92 852.16 a7.5 7.5 0 1 0 15 0 a7.5 7.5 0 1 0 -15 0zM364.97 889.66 a7.5 7.5 0 1 0 15 0 a7.5 7.5 0 1 0 -15 0zM300.01 852.16 a7.5 7.5 0 1 0 15 0 a7.5 7.5 0 1 0 -15 0zM300.01 777.16 a7.5 7.5 0 1 0 15 0 a7.5 7.5 0 1 0 -15 0zM429.92 -47.84 a7.5 7.5 0 1 0 15 0 a7.5 7.5 0 1 0 -15 0zM494.88 -10.34 a7.5 7.5 0 1 0 15 0 a7.5 7.5 0 1 0 -15 0zM494.88 64.66 a7.5 7.5 0 1 0 15 0 a7.5 7.5 0 1 0 -15 0zM429.92 102.16 a7.5 7.5 0 1 0 15 0 a7.5 7.5 0 1 0 -15 0zM364.97 64.66 a7.5 7.5 0 1 0 15 0 a7.5 7.5 0 1 0 -15 0zM364.97 -10.34 a7.5 7.5 0 1 0 15 0 a7.5 7.5 0 1 0 -15 0zM494.88 439.66 a7.5 7.5 0 1 0 15 0 a7.5 7.5 0 1 0 -15 0zM494.88 514.66 a7.5 7.5 0 1 0 15 0 a7.5 7.5 0 1 0 -15 0zM429.92 552.16 a7.5 7.5 0 1 0 15 0 a7.5 7.5 0 1 0 -15 0zM364.97 514.66 a7.5 7.5 0 1 0 15 0 a7.5 7.5 0 1 0 -15 0zM559.83 552.16 a7.5 7.5 0 1 0 15 0 a7.5 7.5 0 1 0 -15 0zM559.83 627.16 a7.5 7.5 0 1 0 15 0 a7.5 7.5 0 1 0 -15 0zM494.88 664.66 a7.5 7.5 0 1 0 15 0 a7.5 7.5 0 1 0 -15 0zM429.92 627.16 a7.5 7.5 0 1 0 15 0 a7.5 7.5 0 1 0 -15 0zM494.88 739.66 a7.5 7.5 0 1 0 15 0 a7.5 7.5 0 1 0 -15 0zM559.83 777.16 a7.5 7.5 0 1 0 15 0 a7.5 7.5 0 1 0 -15 0zM559.83 852.16 a7.5 7.5 0 1 0 15 0 a7.5 7.5 0 1 0 -15 0zM494.88 889.66 a7.5 7.5 0 1 0 15 0 a7.5 7.5 0 1 0 -15 0zM559.83 177.16 a7.5 7.5 0 1 0 15 0 a7.5 7.5 0 1 0 -15 0zM624.78 214.66 a7.5 7.5 0 1 0 15 0 a7.5 7.5 0 1 0 -15 0zM624.78 289.66 a7.5 7.5 0 1 0 15 0 a7.5 7.5 0 1 0 -15 0zM559.83 327.16 a7.5 7.5 0 1 0 15 0 a7.5 7.5 0 1 0 -15 0zM494.88 289.66 a7.5 7.5 0 1 0 15 0 a7.5 7.5 0 1 0 -15 0zM494.88 214.66 a7.5 7.5 0 1 0 15 0 a7.5 7.5 0 1 0 -15 0zM624.78 739.66 a7.5 7.5 0 1 0 15 0 a7.5 7.5 0 1 0 -15 0zM689.74 777.16 a7.5 7.5 0 1 0 15 0 a7.5 7.5 0 1 0 -15 0zM689.74 852.16 a7.5 7.5 0 1 0 15 0 a7.5 7.5 0 1 0 -15 0zM624.78 889.66 a7.5 7.5 0 1 0 15 0 a7.5 7.5 0 1 0 -15 0zM884.6 64.66 a7.5 7.5 0 1 0 15 0 a7.5 7.5 0 1 0 -15 0zM949.55 102.16 a7.5 7.5 0 1 0 15 0 a7.5 7.5 0 1 0 -15 0zM949.55 177.16 a7.5 7.5 0 1 0 15 0 a7.5 7.5 0 1 0 -15 0zM884.6 214.66 a7.5 7.5 0 1 0 15 0 a7.5 7.5 0 1 0 -15 0zM819.64 177.16 a7.5 7.5 0 1 0 15 0 a7.5 7.5 0 1 0 -15 0zM819.64 102.16 a7.5 7.5 0 1 0 15 0 a7.5 7.5 0 1 0 -15 0zM884.6 289.66 a7.5 7.5 0 1 0 15 0 a7.5 7.5 0 1 0 -15 0zM819.64 327.16 a7.5 7.5 0 1 0 15 0 a7.5 7.5 0 1 0 -15 0zM754.69 289.66 a7.5 7.5 0 1 0 15 0 a7.5 7.5 0 1 0 -15 0zM754.69 214.66 a7.5 7.5 0 1 0 15 0 a7.5 7.5 0 1 0 -15 0zM819.64 402.16 a7.5 7.5 0 1 0 15 0 a7.5 7.5 0 1 0 -15 0zM884.6 439.66 a7.5 7.5 0 1 0 15 0 a7.5 7.5 0 1 0 -15 0zM884.6 514.66 a7.5 7.5 0 1 0 15 0 a7.5 7.5 0 1 0 -15 0zM819.64 552.16 a7.5 7.5 0 1 0 15 0 a7.5 7.5 0 1 0 -15 0zM754.69 514.66 a7.5 7.5 0 1 0 15 0 a7.5 7.5 0 1 0 -15 0zM754.69 439.66 a7.5 7.5 0 1 0 15 0 a7.5 7.5 0 1 0 -15 0zM819.64 627.16 a7.5 7.5 0 1 0 15 0 a7.5 7.5 0 1 0 -15 0zM884.6 664.66 a7.5 7.5 0 1 0 15 0 a7.5 7.5 0 1 0 -15 0zM884.6 739.66 a7.5 7.5 0 1 0 15 0 a7.5 7.5 0 1 0 -15 0zM819.64 777.16 a7.5 7.5 0 1 0 15 0 a7.5 7.5 0 1 0 -15 0zM754.69 739.66 a7.5 7.5 0 1 0 15 0 a7.5 7.5 0 1 0 -15 0zM754.69 664.66 a7.5 7.5 0 1 0 15 0 a7.5 7.5 0 1 0 -15 0zM949.55 777.16 a7.5 7.5 0 1 0 15 0 a7.5 7.5 0 1 0 -15 0zM949.55 852.16 a7.5 7.5 0 1 0 15 0 a7.5 7.5 0 1 0 -15 0zM884.6 889.66 a7.5 7.5 0 1 0 15 0 a7.5 7.5 0 1 0 -15 0zM819.64 852.16 a7.5 7.5 0 1 0 15 0 a7.5 7.5 0 1 0 -15 0zM1014.51 214.66 a7.5 7.5 0 1 0 15 0 a7.5 7.5 0 1 0 -15 0zM1014.51 289.66 a7.5 7.5 0 1 0 15 0 a7.5 7.5 0 1 0 -15 0zM949.55 327.16 a7.5 7.5 0 1 0 15 0 a7.5 7.5 0 1 0 -15 0zM1014.51 514.66 a7.5 7.5 0 1 0 15 0 a7.5 7.5 0 1 0 -15 0zM1079.46 552.16 a7.5 7.5 0 1 0 15 0 a7.5 7.5 0 1 0 -15 0zM1079.46 627.16 a7.5 7.5 0 1 0 15 0 a7.5 7.5 0 1 0 -15 0zM1014.51 664.66 a7.5 7.5 0 1 0 15 0 a7.5 7.5 0 1 0 -15 0zM949.55 627.16 a7.5 7.5 0 1 0 15 0 a7.5 7.5 0 1 0 -15 0zM949.55 552.16 a7.5 7.5 0 1 0 15 0 a7.5 7.5 0 1 0 -15 0zM1079.46 -47.84 a7.5 7.5 0 1 0 15 0 a7.5 7.5 0 1 0 -15 0zM1144.41 -10.34 a7.5 7.5 0 1 0 15 0 a7.5 7.5 0 1 0 -15 0zM1144.41 64.66 a7.5 7.5 0 1 0 15 0 a7.5 7.5 0 1 0 -15 0zM1079.46 102.16 a7.5 7.5 0 1 0 15 0 a7.5 7.5 0 1 0 -15 0zM1014.51 64.66 a7.5 7.5 0 1 0 15 0 a7.5 7.5 0 1 0 -15 0zM1014.51 -10.34 a7.5 7.5 0 1 0 15 0 a7.5 7.5 0 1 0 -15 0zM1144.41 289.66 a7.5 7.5 0 1 0 15 0 a7.5 7.5 0 1 0 -15 0zM1209.37 327.16 a7.5 7.5 0 1 0 15 0 a7.5 7.5 0 1 0 -15 0zM1209.37 402.16 a7.5 7.5 0 1 0 15 0 a7.5 7.5 0 1 0 -15 0zM1144.41 439.66 a7.5 7.5 0 1 0 15 0 a7.5 7.5 0 1 0 -15 0zM1079.46 402.16 a7.5 7.5 0 1 0 15 0 a7.5 7.5 0 1 0 -15 0zM1079.46 327.16 a7.5 7.5 0 1 0 15 0 a7.5 7.5 0 1 0 -15 0zM1144.41 514.66 a7.5 7.5 0 1 0 15 0 a7.5 7.5 0 1 0 -15 0zM1014.51 439.66 a7.5 7.5 0 1 0 15 0 a7.5 7.5 0 1 0 -15 0zM1209.37 -47.84 a7.5 7.5 0 1 0 15 0 a7.5 7.5 0 1 0 -15 0zM1274.32 -10.34 a7.5 7.5 0 1 0 15 0 a7.5 7.5 0 1 0 -15 0zM1274.32 64.66 a7.5 7.5 0 1 0 15 0 a7.5 7.5 0 1 0 -15 0zM1209.37 102.16 a7.5 7.5 0 1 0 15 0 a7.5 7.5 0 1 0 -15 0zM1274.32 514.66 a7.5 7.5 0 1 0 15 0 a7.5 7.5 0 1 0 -15 0zM1339.27 552.16 a7.5 7.5 0 1 0 15 0 a7.5 7.5 0 1 0 -15 0zM1339.27 627.16 a7.5 7.5 0 1 0 15 0 a7.5 7.5 0 1 0 -15 0zM1274.32 664.66 a7.5 7.5 0 1 0 15 0 a7.5 7.5 0 1 0 -15 0zM1209.37 627.16 a7.5 7.5 0 1 0 15 0 a7.5 7.5 0 1 0 -15 0zM1209.37 552.16 a7.5 7.5 0 1 0 15 0 a7.5 7.5 0 1 0 -15 0zM1274.32 739.66 a7.5 7.5 0 1 0 15 0 a7.5 7.5 0 1 0 -15 0zM1209.37 777.16 a7.5 7.5 0 1 0 15 0 a7.5 7.5 0 1 0 -15 0zM1144.41 739.66 a7.5 7.5 0 1 0 15 0 a7.5 7.5 0 1 0 -15 0zM1144.41 664.66 a7.5 7.5 0 1 0 15 0 a7.5 7.5 0 1 0 -15 0zM1404.23 289.66 a7.5 7.5 0 1 0 15 0 a7.5 7.5 0 1 0 -15 0zM1469.18 327.16 a7.5 7.5 0 1 0 15 0 a7.5 7.5 0 1 0 -15 0zM1469.18 402.16 a7.5 7.5 0 1 0 15 0 a7.5 7.5 0 1 0 -15 0zM1404.23 439.66 a7.5 7.5 0 1 0 15 0 a7.5 7.5 0 1 0 -15 0zM1339.28 402.16 a7.5 7.5 0 1 0 15 0 a7.5 7.5 0 1 0 -15 0zM1339.28 327.16 a7.5 7.5 0 1 0 15 0 a7.5 7.5 0 1 0 -15 0zM1339.28 627.16 a7.5 7.5 0 1 0 15 0 a7.5 7.5 0 1 0 -15 0zM1404.23 664.66 a7.5 7.5 0 1 0 15 0 a7.5 7.5 0 1 0 -15 0zM1404.23 739.66 a7.5 7.5 0 1 0 15 0 a7.5 7.5 0 1 0 -15 0zM1339.28 777.16 a7.5 7.5 0 1 0 15 0 a7.5 7.5 0 1 0 -15 0zM1469.18 -47.84 a7.5 7.5 0 1 0 15 0 a7.5 7.5 0 1 0 -15 0zM1534.14 -10.34 a7.5 7.5 0 1 0 15 0 a7.5 7.5 0 1 0 -15 0zM1534.14 64.66 a7.5 7.5 0 1 0 15 0 a7.5 7.5 0 1 0 -15 0zM1469.18 102.16 a7.5 7.5 0 1 0 15 0 a7.5 7.5 0 1 0 -15 0zM1404.23 64.66 a7.5 7.5 0 1 0 15 0 a7.5 7.5 0 1 0 -15 0zM1404.23 -10.34 a7.5 7.5 0 1 0 15 0 a7.5 7.5 0 1 0 -15 0zM1599.09 102.16 a7.5 7.5 0 1 0 15 0 a7.5 7.5 0 1 0 -15 0zM1599.09 177.16 a7.5 7.5 0 1 0 15 0 a7.5 7.5 0 1 0 -15 0zM1534.14 214.66 a7.5 7.5 0 1 0 15 0 a7.5 7.5 0 1 0 -15 0zM1469.18 177.16 a7.5 7.5 0 1 0 15 0 a7.5 7.5 0 1 0 -15 0zM1534.14 289.66 a7.5 7.5 0 1 0 15 0 a7.5 7.5 0 1 0 -15 0zM1404.23 214.66 a7.5 7.5 0 1 0 15 0 a7.5 7.5 0 1 0 -15 0z" fill="url(#SvgjsLinearGradient2951)"></path>
        <path d="M85.95 673.58L129.25 698.58L129.25 748.58L85.95 773.58L42.65 748.58L42.65 698.58zM42.65 748.58L85.95 773.58L85.95 823.58L42.65 848.58L-0.65 823.58L-0.65 773.58zM129.25 298.58L172.56 323.58L172.56 373.58L129.25 398.58L85.95 373.58L85.95 323.58zM172.56 373.58L215.86 398.58L215.86 448.58L172.56 473.58L129.25 448.58L129.25 398.58zM129.25 448.58L172.56 473.58L172.56 523.58L129.25 548.58L85.95 523.58L85.95 473.58zM129.25 748.58L172.56 773.58L172.56 823.58L129.25 848.58L85.95 823.58L85.95 773.58zM432.37 673.58L475.68 698.58L475.68 748.58L432.37 773.58L389.07 748.58L389.07 698.58zM518.98 523.58L562.28 548.58L562.28 598.58L518.98 623.58L475.68 598.58L475.68 548.58zM518.98 823.58L562.28 848.58L562.28 898.58L518.98 923.58L475.68 898.58L475.68 848.58zM605.58 73.58L648.88 98.58L648.88 148.58L605.58 173.58L562.28 148.58L562.28 98.58zM605.58 373.58L648.88 398.58L648.88 448.58L605.58 473.58L562.28 448.58L562.28 398.58zM692.19 673.58L735.49 698.58L735.49 748.58L692.19 773.58L648.88 748.58L648.88 698.58zM692.19 823.58L735.49 848.58L735.49 898.58L692.19 923.58L648.88 898.58L648.88 848.58zM778.79 73.58L822.1 98.58L822.1 148.58L778.79 173.58L735.49 148.58L735.49 98.58zM735.49 748.58L778.79 773.58L778.79 823.58L735.49 848.58L692.19 823.58L692.19 773.58zM865.4 73.58L908.7 98.58L908.7 148.58L865.4 173.58L822.1 148.58L822.1 98.58zM865.4 223.58L908.7 248.58L908.7 298.58L865.4 323.58L822.1 298.58L822.1 248.58zM865.4 373.58L908.7 398.58L908.7 448.58L865.4 473.58L822.1 448.58L822.1 398.58zM908.7 598.58L952 623.58L952 673.58L908.7 698.58L865.4 673.58L865.4 623.58zM995.31 448.58L1038.61 473.58L1038.61 523.58L995.31 548.58L952 523.58L952 473.58zM1081.91 448.58L1125.21 473.58L1125.21 523.58L1081.91 548.58L1038.61 523.58L1038.61 473.58zM1125.21 673.58L1168.52 698.58L1168.52 748.58L1125.21 773.58L1081.91 748.58L1081.91 698.58zM1125.21 823.58L1168.52 848.58L1168.52 898.58L1125.21 923.58L1081.91 898.58L1081.91 848.58zM1211.82 73.58L1255.12 98.58L1255.12 148.58L1211.82 173.58L1168.52 148.58L1168.52 98.58zM1168.52 298.58L1211.82 323.58L1211.82 373.58L1168.52 398.58L1125.21 373.58L1125.21 323.58zM1211.82 673.58L1255.12 698.58L1255.12 748.58L1211.82 773.58L1168.52 748.58L1168.52 698.58zM1255.12 -1.42L1298.42 23.58L1298.42 73.58L1255.12 98.58L1211.82 73.58L1211.82 23.58zM1255.12 148.58L1298.42 173.58L1298.42 223.58L1255.12 248.58L1211.82 223.58L1211.82 173.58zM1255.12 448.58L1298.42 473.58L1298.42 523.58L1255.12 548.58L1211.82 523.58L1211.82 473.58zM1298.42 523.58L1341.73 548.58L1341.73 598.58L1298.42 623.58L1255.12 598.58L1255.12 548.58zM1385.03 223.58L1428.33 248.58L1428.33 298.58L1385.03 323.58L1341.73 298.58L1341.73 248.58zM1428.33 -1.42L1471.63 23.58L1471.63 73.58L1428.33 98.58L1385.03 73.58L1385.03 23.58zM1428.33 148.58L1471.63 173.58L1471.63 223.58L1428.33 248.58L1385.03 223.58L1385.03 173.58zM1471.63 373.58L1514.94 398.58L1514.94 448.58L1471.63 473.58L1428.33 448.58L1428.33 398.58z" stroke="rgba(21, 27, 37, 1)" stroke-width="2"></path>
    </g>
    <defs>
        <mask id="SvgjsMask2949">
            <rect width="1440" height="800" fill="#ffffff"></rect>
        </mask>
        <linearGradient x1="50%" y1="0%" x2="50%" y2="100%" gradientUnits="userSpaceOnUse" id="SvgjsLinearGradient2950">
            <stop stop-color="rgba(3, 70, 135, 1)" offset="0"></stop>
            <stop stop-color="rgba(219, 232, 225, 1)" offset="1"></stop>
        </linearGradient>
        <linearGradient x1="1280.016" y1="960" x2="159.98399999999998" y2="-160" gradientUnits="userSpaceOnUse" id="SvgjsLinearGradient2951">
            <stop stop-color="rgba(225, 0, 50, 1)" offset="0.17"></stop>
            <stop stop-color="#03305d" offset="1"></stop>
        </linearGradient>
    </defs>
</svg>